<?xml version="1.0" encoding="UTF-8"?>
<svg width="144px" height="39px" viewBox="0 0 144 39" version="1.1" xmlns="http://www.w3.org/2000/svg" xmlns:xlink="http://www.w3.org/1999/xlink">
    <!-- Generator: Sketch 47.1 (45422) - http://www.bohemiancoding.com/sketch -->
    <title>Logo/Noodlr</title>
    <desc>Created with Sketch.</desc>
    <defs></defs>
    <g id="Landing-Page" stroke="none" stroke-width="1" fill="none" fill-rule="evenodd">
        <g transform="translate(-128.000000, -104.000000)" id="Logo/Noodlr" fill="#D8D8E3">
            <path d="M234.267541,119.249934 L234.267541,104.000003 L239.472079,104.000003 C239.472079,112.573 239.472079,121.146211 239.472079,129.719315 C239.449742,136.429979 233.856383,142.670764 226.630534,142.988045 C220.973853,143.236432 215.366614,139.590262 213.398866,134.282101 C212.859112,132.826282 212.586958,131.280781 212.581753,129.723537 L212.581753,129.705236 C212.597367,125.685254 214.561863,121.691693 217.790194,119.215862 C220.075853,117.462947 222.904302,116.475271 225.85419,116.430056 C225.940499,116.429198 226.027024,116.428984 226.113333,116.429198 C229.046523,116.457271 231.943282,117.486948 234.267541,119.249934 Z M245.977533,121.143425 L245.977533,121.143425 L245.977533,121.180926 L245.977533,129.715094 L245.955414,129.715094 C245.955414,131.161441 245.961052,132.607789 245.977967,134.054072 C246.011579,136.901895 250.028398,139.198963 252.570164,136.795048 C253.335881,136.070975 253.778267,135.038383 253.784339,133.99347 L253.784339,123.28631 L253.784556,123.28631 L253.784556,122.93022 C253.784989,122.869725 253.784989,122.869854 253.786074,122.809294 C253.89667,118.337047 257.910019,114.38506 262.719445,114.287556 C262.796212,114.286485 262.872762,114.286056 262.949529,114.286271 C267.577663,114.326129 271.9601,118.083753 272.000002,122.919762 C272.000002,122.919762 266.795898,123.001129 266.795898,123.001129 C266.795682,122.965985 266.795465,122.930863 266.794597,122.89574 C266.74407,121.368004 265.559387,120.000816 264.016676,119.578659 C261.83424,118.981425 259.053499,120.330184 258.989526,122.914126 C258.989093,122.932663 258.989093,122.932577 258.989093,122.951113 L258.989093,123.66728 C258.990394,127.130658 259.009043,130.59408 258.988659,134.057415 C258.968708,137.437927 256.840053,140.722285 253.731426,142.158304 C251.225875,143.31572 248.186425,143.257926 245.732269,142.013913 C242.801031,140.528071 240.812247,137.369439 240.773863,134.113881 C240.773863,134.113881 240.772996,134.008385 240.772996,134.008385 L240.772996,129.715094 L240.772996,129.715094 L240.772996,104.000003 L245.977533,104.000003 L245.977533,121.143425 Z M184.390728,129.725037 L184.390728,129.705236 C184.416967,122.993072 189.974112,116.850712 197.060306,116.450842 C197.347423,116.434556 197.634973,116.428341 197.92209,116.429198 C203.418082,116.481914 208.656882,120.084819 210.519239,125.300534 C211.014754,126.688594 211.263271,128.165092 211.280402,129.625991 L211.280836,129.705236 L211.280836,129.725037 C211.263271,134.186377 208.825379,138.567957 205.013489,140.9492 C201.425178,143.190724 196.742178,143.629809 192.753334,142.017428 C187.859118,140.039077 184.411546,135.051219 184.390728,129.725037 Z M156.199268,129.725037 L156.199268,129.705236 C156.225291,123.032823 161.856166,116.801425 168.955155,116.446128 C169.21343,116.43327 169.472139,116.428556 169.730848,116.429198 C173.341278,116.4637 176.8834,117.972535 179.37312,120.547477 C181.728173,122.983043 183.076148,126.327318 183.089376,129.705236 L183.089376,129.725037 C183.075281,133.332249 181.537123,136.861929 178.920542,139.329746 C175.571639,142.488379 170.505673,143.741006 166.046252,142.518873 C160.580404,141.020881 156.353236,135.864718 156.203605,130.056462 C156.200786,129.945994 156.199702,129.835526 156.199268,129.725037 Z M133.212541,142.572682 L128.008004,142.572682 C128.008004,138.258282 127.989766,133.94384 128.008351,129.629484 C128.043416,125.5639 130.076699,121.53451 133.40821,119.071214 C135.734508,117.3513 138.648463,116.420198 141.539909,116.429198 C147.112276,116.482129 152.467615,120.213609 154.242579,125.610187 C154.677592,126.933038 154.897917,128.323605 154.898134,129.715051 L154.898134,129.715051 L154.898134,142.572682 L149.693597,142.572682 L149.693597,129.715158 L149.693597,129.715158 C149.693597,129.610326 149.691211,129.505472 149.687742,129.400512 C149.542362,126.058616 147.162695,122.896597 143.80553,121.908686 C140.051736,120.803985 135.595547,122.694455 133.918797,126.413356 C133.451776,127.449162 133.217442,128.580799 133.212541,129.720622 L133.212541,142.572682 Z M206.076299,129.716165 C206.057649,126.102417 203.345869,122.614867 199.696621,121.780411 C195.022296,120.711625 189.761159,124.28755 189.599385,129.450078 C189.596566,129.538195 189.595482,129.626312 189.595265,129.714472 C189.613264,133.212373 192.114694,136.529604 195.483331,137.521651 C198.238483,138.333006 201.394167,137.606811 203.520871,135.607052 C205.131675,134.092324 206.064589,131.920102 206.076299,129.716165 Z M177.884839,129.715758 C177.86684,126.245115 175.425262,122.917341 171.997207,121.908772 C167.358663,120.544048 161.757714,123.871544 161.42072,129.188748 C161.406191,129.416434 161.404022,129.655456 161.403805,129.712415 C161.422021,133.429859 164.229218,136.862743 167.831842,137.660748 C172.49012,138.692611 177.718945,135.142722 177.880719,129.980174 C177.883538,129.892057 177.884406,129.803939 177.884839,129.715758 Z M234.267325,129.715179 L234.267325,129.715179 C234.267325,129.534573 234.265373,129.525616 234.263204,129.450078 C234.1435,126.078095 231.708427,122.909691 228.428268,121.923215 C225.659454,121.090495 222.480783,121.811762 220.341501,123.823178 C218.733299,125.335421 217.799952,127.505564 217.78629,129.707379 C217.786507,129.763545 217.786941,129.819668 217.788025,129.875835 C217.849612,132.953357 219.835794,135.948463 222.776574,137.19974 C226.624245,138.837001 231.64684,137.128209 233.519823,133.107327 C233.998207,132.080307 234.247808,130.958035 234.266674,129.819583 L234.267325,129.715179 Z"></path>
        </g>
    </g>
</svg>